<svg id="visual" viewBox="0 0 900 600" width="900" height="600" xmlns="http://www.w3.org/2000/svg" xmlns:xlink="http://www.w3.org/1999/xlink" version="1.1"><g stroke-width="1" stroke-linejoin="bevel"><path d="M446.6 248.7L500.6 162.3L428.4 235.7Z" fill="#297ea6" stroke="#297ea6"></path><path d="M446.6 248.7L518.6 197L500.6 162.3Z" fill="#297ea6" stroke="#297ea6"></path><path d="M500.6 162.3L397.4 169L428.4 235.7Z" fill="#205a7a" stroke="#205a7a"></path><path d="M500.6 162.3L429.4 130.3L397.4 169Z" fill="#205a7a" stroke="#205a7a"></path><path d="M518.6 197L555.8 164.3L500.6 162.3Z" fill="#112e42" stroke="#112e42"></path><path d="M500.6 162.3L448.4 61.7L429.4 130.3Z" fill="#297ea6" stroke="#297ea6"></path><path d="M429.4 130.3L371.2 168.3L397.4 169Z" fill="#19435d" stroke="#19435d"></path><path d="M397.4 169L371.2 168.3L428.4 235.7Z" fill="#081a28" stroke="#081a28"></path><path d="M605.1 240.7L581.8 177L518.6 197Z" fill="#205a7a" stroke="#205a7a"></path><path d="M518.6 197L581.8 177L555.8 164.3Z" fill="#277297" stroke="#277297"></path><path d="M310.9 191L335.2 185L289.9 82.7Z" fill="#19435d" stroke="#19435d"></path><path d="M371.2 168.3L335.2 185L428.4 235.7Z" fill="#15384f" stroke="#15384f"></path><path d="M414.4 361.3L492.6 333.3L446.6 248.7Z" fill="#277297" stroke="#277297"></path><path d="M446.6 248.7L568.8 288.7L518.6 197Z" fill="#277297" stroke="#277297"></path><path d="M414.4 361.3L446.6 248.7L428.4 235.7Z" fill="#0c2435" stroke="#0c2435"></path><path d="M446.6 248.7L492.6 333.3L568.8 288.7Z" fill="#297ea6" stroke="#297ea6"></path><path d="M519.6 55.7L500.6 162.3L555.8 164.3Z" fill="#081a28" stroke="#081a28"></path><path d="M519.6 55.7L448.4 61.7L500.6 162.3Z" fill="#246688" stroke="#246688"></path><path d="M308.2 49.7L289.9 82.7L371.2 168.3Z" fill="#112e42" stroke="#112e42"></path><path d="M568.8 288.7L605.1 240.7L518.6 197Z" fill="#246688" stroke="#246688"></path><path d="M492.6 333.3L520.8 344.3L568.8 288.7Z" fill="#1d4e6b" stroke="#1d4e6b"></path><path d="M574.8 48.7L519.6 55.7L555.8 164.3Z" fill="#15384f" stroke="#15384f"></path><path d="M289.9 82.7L335.2 185L371.2 168.3Z" fill="#1d4e6b" stroke="#1d4e6b"></path><path d="M335.2 185L310.2 240.7L428.4 235.7Z" fill="#15384f" stroke="#15384f"></path><path d="M310.9 191L310.2 240.7L335.2 185Z" fill="#15384f" stroke="#15384f"></path><path d="M303.9 267.7L414.4 361.3L428.4 235.7Z" fill="#081a28" stroke="#081a28"></path><path d="M492.6 333.3L511.6 397L520.8 344.3Z" fill="#081a28" stroke="#081a28"></path><path d="M224.7 297.3L303.9 267.7L188.7 232Z" fill="#15384f" stroke="#15384f"></path><path d="M310.2 240.7L303.9 267.7L428.4 235.7Z" fill="#277297" stroke="#277297"></path><path d="M371.2 422L415.4 372L414.4 361.3Z" fill="#246688" stroke="#246688"></path><path d="M414.4 361.3L415.4 372L492.6 333.3Z" fill="#15384f" stroke="#15384f"></path><path d="M605.1 240.7L648.1 168L581.8 177Z" fill="#246688" stroke="#246688"></path><path d="M581.8 177L627.1 106.3L555.8 164.3Z" fill="#0c2435" stroke="#0c2435"></path><path d="M648.1 168L627.1 106.3L581.8 177Z" fill="#0c2435" stroke="#0c2435"></path><path d="M627.1 106.3L574.8 48.7L555.8 164.3Z" fill="#277297" stroke="#277297"></path><path d="M519.6 55.7L512.6 0L448.4 61.7Z" fill="#297ea6" stroke="#297ea6"></path><path d="M415.4 372L511.6 397L492.6 333.3Z" fill="#15384f" stroke="#15384f"></path><path d="M520.8 344.3L592.1 379L568.8 288.7Z" fill="#277297" stroke="#277297"></path><path d="M659.1 345.3L684.3 239.7L605.1 240.7Z" fill="#0c2435" stroke="#0c2435"></path><path d="M574.8 48.7L512.6 0L519.6 55.7Z" fill="#15384f" stroke="#15384f"></path><path d="M308.2 49.7L371.2 168.3L429.4 130.3Z" fill="#15384f" stroke="#15384f"></path><path d="M308.2 49.7L429.4 130.3L448.4 61.7Z" fill="#19435d" stroke="#19435d"></path><path d="M310.9 191L188.7 232L310.2 240.7Z" fill="#297ea6" stroke="#297ea6"></path><path d="M648.1 168L668.3 131.3L627.1 106.3Z" fill="#15384f" stroke="#15384f"></path><path d="M623.1 28.7L577.8 0L574.8 48.7Z" fill="#1d4e6b" stroke="#1d4e6b"></path><path d="M269.9 349.3L308.2 348.3L303.9 267.7Z" fill="#277297" stroke="#277297"></path><path d="M303.9 267.7L308.2 348.3L414.4 361.3Z" fill="#00101c" stroke="#00101c"></path><path d="M491.6 462.7L515.8 428.7L511.6 397Z" fill="#277297" stroke="#277297"></path><path d="M511.6 397L592.1 379L520.8 344.3Z" fill="#246688" stroke="#246688"></path><path d="M605.1 240.7L684.3 239.7L648.1 168Z" fill="#15384f" stroke="#15384f"></path><path d="M648.1 168L734.5 175L668.3 131.3Z" fill="#00101c" stroke="#00101c"></path><path d="M377.4 0L308.2 49.7L448.4 61.7Z" fill="#00101c" stroke="#00101c"></path><path d="M512.6 0L377.4 0L448.4 61.7Z" fill="#246688" stroke="#246688"></path><path d="M659.1 345.3L605.1 240.7L568.8 288.7Z" fill="#277297" stroke="#277297"></path><path d="M377.4 0L374.2 0L308.2 49.7Z" fill="#277297" stroke="#277297"></path><path d="M213.7 129.3L248.9 149.3L289.9 82.7Z" fill="#277297" stroke="#277297"></path><path d="M289.9 82.7L248.9 149.3L310.9 191Z" fill="#277297" stroke="#277297"></path><path d="M511.6 397L591.8 393L592.1 379Z" fill="#0c2435" stroke="#0c2435"></path><path d="M592.1 379L659.1 345.3L568.8 288.7Z" fill="#277297" stroke="#277297"></path><path d="M623.1 28.7L574.8 48.7L627.1 106.3Z" fill="#15384f" stroke="#15384f"></path><path d="M574.8 48.7L577.8 0L512.6 0Z" fill="#081a28" stroke="#081a28"></path><path d="M491.6 462.7L511.6 397L415.4 372Z" fill="#15384f" stroke="#15384f"></path><path d="M511.6 397L515.8 428.7L591.8 393Z" fill="#297ea6" stroke="#297ea6"></path><path d="M684.3 73.7L623.1 28.7L627.1 106.3Z" fill="#19435d" stroke="#19435d"></path><path d="M591.8 393L659.1 345.3L592.1 379Z" fill="#205a7a" stroke="#205a7a"></path><path d="M308.2 348.3L371.2 422L414.4 361.3Z" fill="#0c2435" stroke="#0c2435"></path><path d="M371.2 422L377.2 427.7L415.4 372Z" fill="#0c2435" stroke="#0c2435"></path><path d="M224.7 297.3L269.9 349.3L303.9 267.7Z" fill="#15384f" stroke="#15384f"></path><path d="M308.2 348.3L286.9 381L371.2 422Z" fill="#1d4e6b" stroke="#1d4e6b"></path><path d="M342.2 508.3L379.4 501.7L377.2 427.7Z" fill="#00101c" stroke="#00101c"></path><path d="M668.3 131.3L684.3 73.7L627.1 106.3Z" fill="#15384f" stroke="#15384f"></path><path d="M743.5 153.3L684.3 73.7L668.3 131.3Z" fill="#246688" stroke="#246688"></path><path d="M269.9 349.3L286.9 381L308.2 348.3Z" fill="#0c2435" stroke="#0c2435"></path><path d="M739.5 272.7L725.3 205L684.3 239.7Z" fill="#277297" stroke="#277297"></path><path d="M684.3 239.7L725.3 205L648.1 168Z" fill="#081a28" stroke="#081a28"></path><path d="M679.3 0L632.1 0L623.1 28.7Z" fill="#297ea6" stroke="#297ea6"></path><path d="M623.1 28.7L632.1 0L577.8 0Z" fill="#081a28" stroke="#081a28"></path><path d="M188.7 232L303.9 267.7L310.2 240.7Z" fill="#15384f" stroke="#15384f"></path><path d="M269.9 349.3L221.7 430L286.9 381Z" fill="#1d4e6b" stroke="#1d4e6b"></path><path d="M377.2 427.7L491.6 462.7L415.4 372Z" fill="#246688" stroke="#246688"></path><path d="M515.8 428.7L601.1 488.7L591.8 393Z" fill="#1d4e6b" stroke="#1d4e6b"></path><path d="M195.7 60.7L213.7 129.3L289.9 82.7Z" fill="#00101c" stroke="#00101c"></path><path d="M248.9 149.3L188.7 232L310.9 191Z" fill="#246688" stroke="#246688"></path><path d="M188.7 232L219.7 300.7L224.7 297.3Z" fill="#112e42" stroke="#112e42"></path><path d="M224.7 297.3L219.7 300.7L269.9 349.3Z" fill="#297ea6" stroke="#297ea6"></path><path d="M725.3 205L734.5 175L648.1 168Z" fill="#15384f" stroke="#15384f"></path><path d="M374.2 0L273.9 0L308.2 49.7Z" fill="#00101c" stroke="#00101c"></path><path d="M308.2 49.7L273.9 0L289.9 82.7Z" fill="#00101c" stroke="#00101c"></path><path d="M213.7 129.3L188.7 232L248.9 149.3Z" fill="#246688" stroke="#246688"></path><path d="M791.8 170.3L743.5 153.3L734.5 175Z" fill="#277297" stroke="#277297"></path><path d="M734.5 175L743.5 153.3L668.3 131.3Z" fill="#297ea6" stroke="#297ea6"></path><path d="M684.3 73.7L679.3 0L623.1 28.7Z" fill="#112e42" stroke="#112e42"></path><path d="M659.1 345.3L739.5 272.7L684.3 239.7Z" fill="#277297" stroke="#277297"></path><path d="M725.3 205L791.8 170.3L734.5 175Z" fill="#0c2435" stroke="#0c2435"></path><path d="M744.5 0L679.3 0L684.3 73.7Z" fill="#00101c" stroke="#00101c"></path><path d="M712.3 389L710.3 367.3L659.1 345.3Z" fill="#205a7a" stroke="#205a7a"></path><path d="M659.1 345.3L710.3 367.3L739.5 272.7Z" fill="#0c2435" stroke="#0c2435"></path><path d="M712.3 389L659.1 345.3L679.3 427.7Z" fill="#246688" stroke="#246688"></path><path d="M273.9 0L195.7 60.7L289.9 82.7Z" fill="#00101c" stroke="#00101c"></path><path d="M213.7 129.3L122.5 204L188.7 232Z" fill="#19435d" stroke="#19435d"></path><path d="M122.5 204L177.5 303.7L188.7 232Z" fill="#246688" stroke="#246688"></path><path d="M188.7 232L177.5 303.7L219.7 300.7Z" fill="#00101c" stroke="#00101c"></path><path d="M169.5 416L221.7 430L269.9 349.3Z" fill="#00101c" stroke="#00101c"></path><path d="M514.8 548.3L521.6 504.3L491.6 462.7Z" fill="#246688" stroke="#246688"></path><path d="M491.6 462.7L521.6 504.3L515.8 428.7Z" fill="#246688" stroke="#246688"></path><path d="M379.4 501.7L491.6 462.7L377.2 427.7Z" fill="#1d4e6b" stroke="#1d4e6b"></path><path d="M679.3 427.7L659.1 345.3L591.8 393Z" fill="#246688" stroke="#246688"></path><path d="M710.3 367.3L777.5 302.3L739.5 272.7Z" fill="#081a28" stroke="#081a28"></path><path d="M601.1 488.7L679.3 427.7L591.8 393Z" fill="#277297" stroke="#277297"></path><path d="M342.2 508.3L371.2 422L255.9 462.7Z" fill="#15384f" stroke="#15384f"></path><path d="M342.2 508.3L377.2 427.7L371.2 422Z" fill="#277297" stroke="#277297"></path><path d="M521.6 504.3L601.1 488.7L515.8 428.7Z" fill="#081a28" stroke="#081a28"></path><path d="M739.5 272.7L791.8 170.3L725.3 205Z" fill="#297ea6" stroke="#297ea6"></path><path d="M797.5 87.7L744.5 0L684.3 73.7Z" fill="#19435d" stroke="#19435d"></path><path d="M812.8 176L791.8 170.3L819.8 281.7Z" fill="#0c2435" stroke="#0c2435"></path><path d="M751.5 378L777.5 302.3L710.3 367.3Z" fill="#00101c" stroke="#00101c"></path><path d="M255.9 462.7L371.2 422L286.9 381Z" fill="#0c2435" stroke="#0c2435"></path><path d="M379.4 501.7L514.8 548.3L491.6 462.7Z" fill="#112e42" stroke="#112e42"></path><path d="M779.5 447.7L751.5 378L712.3 389Z" fill="#19435d" stroke="#19435d"></path><path d="M712.3 389L751.5 378L710.3 367.3Z" fill="#0c2435" stroke="#0c2435"></path><path d="M779.5 447.7L712.3 389L679.3 427.7Z" fill="#297ea6" stroke="#297ea6"></path><path d="M169.5 416L269.9 349.3L219.7 300.7Z" fill="#0c2435" stroke="#0c2435"></path><path d="M221.7 430L255.9 462.7L286.9 381Z" fill="#081a28" stroke="#081a28"></path><path d="M797.5 87.7L684.3 73.7L743.5 153.3Z" fill="#0c2435" stroke="#0c2435"></path><path d="M122.5 120.3L122.5 204L213.7 129.3Z" fill="#297ea6" stroke="#297ea6"></path><path d="M177.5 303.7L169.5 416L219.7 300.7Z" fill="#00101c" stroke="#00101c"></path><path d="M273.9 0L186.7 0L195.7 60.7Z" fill="#297ea6" stroke="#297ea6"></path><path d="M128.5 80.7L122.5 120.3L213.7 129.3Z" fill="#205a7a" stroke="#205a7a"></path><path d="M819.8 281.7L791.8 170.3L739.5 272.7Z" fill="#112e42" stroke="#112e42"></path><path d="M791.8 170.3L797.5 87.7L743.5 153.3Z" fill="#15384f" stroke="#15384f"></path><path d="M812.8 176L797.5 87.7L791.8 170.3Z" fill="#277297" stroke="#277297"></path><path d="M521.6 504.3L514.8 548.3L601.1 488.7Z" fill="#00101c" stroke="#00101c"></path><path d="M394.4 567.3L514.8 548.3L379.4 501.7Z" fill="#081a28" stroke="#081a28"></path><path d="M128.5 80.7L213.7 129.3L195.7 60.7Z" fill="#15384f" stroke="#15384f"></path><path d="M146.5 0L128.5 80.7L195.7 60.7Z" fill="#081a28" stroke="#081a28"></path><path d="M833.8 365.3L819.8 281.7L777.5 302.3Z" fill="#1d4e6b" stroke="#1d4e6b"></path><path d="M777.5 302.3L819.8 281.7L739.5 272.7Z" fill="#297ea6" stroke="#297ea6"></path><path d="M128.5 80.7L107.2 134.3L122.5 120.3Z" fill="#112e42" stroke="#112e42"></path><path d="M122.5 120.3L107.2 134.3L122.5 204Z" fill="#0c2435" stroke="#0c2435"></path><path d="M104.5 364.3L169.5 416L177.5 303.7Z" fill="#112e42" stroke="#112e42"></path><path d="M221.7 430L167.7 497.7L255.9 462.7Z" fill="#297ea6" stroke="#297ea6"></path><path d="M289.9 549.3L394.4 567.3L342.2 508.3Z" fill="#00101c" stroke="#00101c"></path><path d="M342.2 508.3L394.4 567.3L379.4 501.7Z" fill="#246688" stroke="#246688"></path><path d="M289.9 549.3L342.2 508.3L255.9 462.7Z" fill="#1d4e6b" stroke="#1d4e6b"></path><path d="M186.7 0L146.5 0L195.7 60.7Z" fill="#277297" stroke="#277297"></path><path d="M128.5 80.7L103.2 38.7L107.2 134.3Z" fill="#081a28" stroke="#081a28"></path><path d="M198.7 532.3L289.9 549.3L255.9 462.7Z" fill="#00101c" stroke="#00101c"></path><path d="M62.2 297.3L177.5 303.7L122.5 204Z" fill="#205a7a" stroke="#205a7a"></path><path d="M62.2 297.3L104.5 364.3L177.5 303.7Z" fill="#246688" stroke="#246688"></path><path d="M169.5 416L167.7 497.7L221.7 430Z" fill="#112e42" stroke="#112e42"></path><path d="M146.5 0L103.2 38.7L128.5 80.7Z" fill="#081a28" stroke="#081a28"></path><path d="M40.2 243.7L62.2 297.3L122.5 204Z" fill="#205a7a" stroke="#205a7a"></path><path d="M725.5 560.3L779.5 447.7L679.3 427.7Z" fill="#297ea6" stroke="#297ea6"></path><path d="M751.5 378L833.8 365.3L777.5 302.3Z" fill="#112e42" stroke="#112e42"></path><path d="M669.3 571.3L679.3 427.7L601.1 488.7Z" fill="#277297" stroke="#277297"></path><path d="M383.2 600L432.4 600L394.4 567.3Z" fill="#081a28" stroke="#081a28"></path><path d="M394.4 567.3L432.4 600L514.8 548.3Z" fill="#19435d" stroke="#19435d"></path><path d="M514.8 548.3L548.8 600L601.1 488.7Z" fill="#205a7a" stroke="#205a7a"></path><path d="M432.4 600L517.6 600L514.8 548.3Z" fill="#297ea6" stroke="#297ea6"></path><path d="M779.5 447.7L833.8 365.3L751.5 378Z" fill="#00101c" stroke="#00101c"></path><path d="M900 158.3L797.5 87.7L812.8 176Z" fill="#081a28" stroke="#081a28"></path><path d="M517.6 600L548.8 600L514.8 548.3Z" fill="#297ea6" stroke="#297ea6"></path><path d="M289.9 549.3L383.2 600L394.4 567.3Z" fill="#297ea6" stroke="#297ea6"></path><path d="M635.1 600L655.1 571.3L601.1 488.7Z" fill="#246688" stroke="#246688"></path><path d="M42.2 202L122.5 204L107.2 134.3Z" fill="#0c2435" stroke="#0c2435"></path><path d="M779.5 447.7L847.8 375L833.8 365.3Z" fill="#246688" stroke="#246688"></path><path d="M900 334.3L900 295.7L819.8 281.7Z" fill="#277297" stroke="#277297"></path><path d="M900 66.7L856.8 45.7L797.5 87.7Z" fill="#246688" stroke="#246688"></path><path d="M900 178L812.8 176L819.8 281.7Z" fill="#277297" stroke="#277297"></path><path d="M797.5 87.7L856.8 45.7L744.5 0Z" fill="#15384f" stroke="#15384f"></path><path d="M126.5 486.7L167.7 497.7L169.5 416Z" fill="#081a28" stroke="#081a28"></path><path d="M289.9 549.3L241.9 600L383.2 600Z" fill="#246688" stroke="#246688"></path><path d="M84.2 389L169.5 416L104.5 364.3Z" fill="#1d4e6b" stroke="#1d4e6b"></path><path d="M655.1 571.3L669.3 571.3L601.1 488.7Z" fill="#246688" stroke="#246688"></path><path d="M900 434.7L900 427L847.8 375Z" fill="#246688" stroke="#246688"></path><path d="M668.3 600L669.3 571.3L655.1 571.3Z" fill="#297ea6" stroke="#297ea6"></path><path d="M0 165L42.2 202L107.2 134.3Z" fill="#081a28" stroke="#081a28"></path><path d="M167.7 497.7L198.7 532.3L255.9 462.7Z" fill="#00101c" stroke="#00101c"></path><path d="M62.2 297.3L84.2 389L104.5 364.3Z" fill="#081a28" stroke="#081a28"></path><path d="M42.2 202L40.2 243.7L122.5 204Z" fill="#15384f" stroke="#15384f"></path><path d="M0 440.7L86.2 466.7L84.2 389Z" fill="#205a7a" stroke="#205a7a"></path><path d="M548.8 600L635.1 600L601.1 488.7Z" fill="#0c2435" stroke="#0c2435"></path><path d="M900 295.7L900 178L819.8 281.7Z" fill="#277297" stroke="#277297"></path><path d="M900 178L900 158.3L812.8 176Z" fill="#00101c" stroke="#00101c"></path><path d="M856.8 45.7L858.8 0L744.5 0Z" fill="#246688" stroke="#246688"></path><path d="M900 0L858.8 0L856.8 45.7Z" fill="#00101c" stroke="#00101c"></path><path d="M668.3 600L725.5 560.3L669.3 571.3Z" fill="#277297" stroke="#277297"></path><path d="M669.3 571.3L725.5 560.3L679.3 427.7Z" fill="#205a7a" stroke="#205a7a"></path><path d="M900 334.3L819.8 281.7L833.8 365.3Z" fill="#00101c" stroke="#00101c"></path><path d="M86.2 466.7L126.5 486.7L169.5 416Z" fill="#277297" stroke="#277297"></path><path d="M142.5 570.3L188.7 600L198.7 532.3Z" fill="#00101c" stroke="#00101c"></path><path d="M635.1 600L668.3 600L655.1 571.3Z" fill="#246688" stroke="#246688"></path><path d="M900 427L900 334.3L847.8 375Z" fill="#19435d" stroke="#19435d"></path><path d="M847.8 375L900 334.3L833.8 365.3Z" fill="#081a28" stroke="#081a28"></path><path d="M725.5 560.3L811.8 495.7L779.5 447.7Z" fill="#277297" stroke="#277297"></path><path d="M900 158.3L900 66.7L797.5 87.7Z" fill="#081a28" stroke="#081a28"></path><path d="M188.7 600L241.9 600L198.7 532.3Z" fill="#00101c" stroke="#00101c"></path><path d="M198.7 532.3L241.9 600L289.9 549.3Z" fill="#00101c" stroke="#00101c"></path><path d="M146.5 0L50.2 0L103.2 38.7Z" fill="#205a7a" stroke="#205a7a"></path><path d="M0 120.3L0 165L107.2 134.3Z" fill="#00101c" stroke="#00101c"></path><path d="M42.2 202L0 165L40.2 243.7Z" fill="#15384f" stroke="#15384f"></path><path d="M84.2 389L86.2 466.7L169.5 416Z" fill="#081a28" stroke="#081a28"></path><path d="M142.5 570.3L198.7 532.3L167.7 497.7Z" fill="#1d4e6b" stroke="#1d4e6b"></path><path d="M0 380L84.2 389L62.2 297.3Z" fill="#00101c" stroke="#00101c"></path><path d="M0 120.3L107.2 134.3L103.2 38.7Z" fill="#297ea6" stroke="#297ea6"></path><path d="M40.2 243.7L0 283.7L62.2 297.3Z" fill="#205a7a" stroke="#205a7a"></path><path d="M0 36.7L0 120.3L103.2 38.7Z" fill="#19435d" stroke="#19435d"></path><path d="M0 165L0 283.7L40.2 243.7Z" fill="#0c2435" stroke="#0c2435"></path><path d="M900 66.7L900 0L856.8 45.7Z" fill="#246688" stroke="#246688"></path><path d="M0 283.7L0 311.3L62.2 297.3Z" fill="#15384f" stroke="#15384f"></path><path d="M142.5 570.3L167.7 497.7L126.5 486.7Z" fill="#297ea6" stroke="#297ea6"></path><path d="M900 434.7L847.8 375L779.5 447.7Z" fill="#081a28" stroke="#081a28"></path><path d="M91.2 547.3L126.5 486.7L86.2 466.7Z" fill="#112e42" stroke="#112e42"></path><path d="M91.2 547.3L142.5 570.3L126.5 486.7Z" fill="#297ea6" stroke="#297ea6"></path><path d="M864.8 542.3L900 434.7L811.8 495.7Z" fill="#297ea6" stroke="#297ea6"></path><path d="M811.8 495.7L900 434.7L779.5 447.7Z" fill="#1d4e6b" stroke="#1d4e6b"></path><path d="M50.2 0L0 36.7L103.2 38.7Z" fill="#0c2435" stroke="#0c2435"></path><path d="M0 311.3L0 380L62.2 297.3Z" fill="#15384f" stroke="#15384f"></path><path d="M668.3 600L771.5 600L725.5 560.3Z" fill="#277297" stroke="#277297"></path><path d="M725.5 560.3L771.5 600L811.8 495.7Z" fill="#297ea6" stroke="#297ea6"></path><path d="M50.2 0L0 0L0 36.7Z" fill="#277297" stroke="#277297"></path><path d="M0 537.3L91.2 547.3L86.2 466.7Z" fill="#277297" stroke="#277297"></path><path d="M142.5 570.3L132.5 600L188.7 600Z" fill="#15384f" stroke="#15384f"></path><path d="M89.2 600L132.5 600L142.5 570.3Z" fill="#297ea6" stroke="#297ea6"></path><path d="M840.8 600L864.8 542.3L811.8 495.7Z" fill="#00101c" stroke="#00101c"></path><path d="M0 380L0 440.7L84.2 389Z" fill="#205a7a" stroke="#205a7a"></path><path d="M91.2 547.3L89.2 600L142.5 570.3Z" fill="#205a7a" stroke="#205a7a"></path><path d="M771.5 600L840.8 600L811.8 495.7Z" fill="#1d4e6b" stroke="#1d4e6b"></path><path d="M0 600L89.2 600L91.2 547.3Z" fill="#19435d" stroke="#19435d"></path><path d="M840.8 600L900 572.3L864.8 542.3Z" fill="#277297" stroke="#277297"></path><path d="M864.8 542.3L900 572.3L900 434.7Z" fill="#297ea6" stroke="#297ea6"></path><path d="M0 440.7L0 537.3L86.2 466.7Z" fill="#19435d" stroke="#19435d"></path><path d="M840.8 600L900 600L900 572.3Z" fill="#205a7a" stroke="#205a7a"></path><path d="M0 537.3L0 600L91.2 547.3Z" fill="#205a7a" stroke="#205a7a"></path></g></svg>